<svg width="20" height="20" viewBox="0 0 20 20" fill="none" xmlns="http://www.w3.org/2000/svg">
<g id="Frame" clip-path="url(#clip0_13_2882)">
<path id="Vector (Stroke)" fill-rule="evenodd" clip-rule="evenodd" d="M15.5892 4.41083C15.9147 4.73626 15.9147 5.2639 15.5892 5.58934L5.58922 15.5893C5.26378 15.9148 4.73614 15.9148 4.4107 15.5893C4.08527 15.2639 4.08527 14.7363 4.4107 14.4108L14.4107 4.41083C14.7361 4.08539 15.2638 4.08539 15.5892 4.41083Z" fill="#98A2B3"/>
<path id="Vector (Stroke)_2" fill-rule="evenodd" clip-rule="evenodd" d="M4.4107 4.41083C4.73614 4.08539 5.26378 4.08539 5.58922 4.41083L15.5892 14.4108C15.9147 14.7363 15.9147 15.2639 15.5892 15.5893C15.2638 15.9148 14.7361 15.9148 14.4107 15.5893L4.4107 5.58934C4.08527 5.2639 4.08527 4.73626 4.4107 4.41083Z" fill="#98A2B3"/>
</g>
<defs>
<clipPath id="clip0_13_2882">
<rect width="20" height="20" fill="white"/>
</clipPath>
</defs>
</svg>
